General 

Format : AVI
 Format/Info : Audio Video Interleave
 Format profile : OpenDML
 Format settings : rec
 File size : 766 MiB
 Duration : 1h 41mn
 Overall bit rate : 1 053 Kbps 


Video 

ID : 0
 Format : MPEG-4 Visual
 Format profile : Advanced Simple@L5
 Format settings, BVOP : 2
 Format settings, QPel : No
 Format settings, GMC : No warppoints
 Format settings, Matrix : Default (MPEG)
 Codec ID : XVID
 Codec ID/Hint : XviD
 Duration : 1h 41mn
 Bit rate : 970 Kbps
 Width : 496 pixels
 Height : 224 pixels
 Display aspect ratio : 2.2:1
 Frame rate : 23.976 fps
 Color space : YUV
 Chroma subsampling : 4:2:0
 Bit depth : 8 bits
 Scan type : Progressive
 Compression mode : Lossy
 Bits/(Pixel*Frame) : 0.364
 Stream size : 705 MiB (92%)
 Writing library : XviD 1.2.1 


Audio 

ID : 1
 Format : MPEG Audio
 Format version : Version 1
 Format profile : Layer 3
 Mode : Joint stereo
 Mode extension : MS Stereo
 Codec ID : 55
 Codec ID/Hint : MP3
 Duration : 1h 41mn
 Bit rate mode : Constant
 Bit rate : 80.0 Kbps
 Channel(s) : 2 channels
 Sampling rate : 32.0 KHz
 Compression mode : Lossy
 Stream size : 58.2 MiB (8%)
 Alignment : Aligned on interleaves
 Interleave, duration : 799 ms (19.15 video frames)
 Interleave, preload duration : 216 ms
 Title : 1
 Writing library : LAME3.98r
 Language : Hindi 




 
 Jennifer Lopez - Charlotte 'Charlie' Cantilini
 Jane Fonda - Viola Fields
 Michael Vartan - Dr. Kevin Fields
 Wanda Sykes - Ruby
 Adam Scott - Remy
 Monet Mazur - Fiona
 Annie Parisse - Morgan
 Will Arnett - Kit
 Elaine Stritch - Gertrude
 Stephen Dunham - Dr. Paul Chamberlain
 Randee Heller - Beverly Hills Dog Owner
 Mark Moses - Coffee Shop Customer
 Tomiko Fraser - Coffee Shop Clerk
 Rochelle Flexer - Dr. Patel's Nurse
 Wayne Nickel - George 


Release Date - 13 May 2005 (USA)


please seed after downloading...